<svg width="205" height="190" viewBox="0 0 205 190" fill="none" xmlns="http://www.w3.org/2000/svg">
<path d="M26.5032 142.187V148.027H11.0168V157.882H23.4268V163.514H11.0168V179H3.66463V142.187H26.5032ZM30.6331 141.822C30.6331 140.64 31.0502 139.684 31.8845 138.954C32.7188 138.19 33.8138 137.807 35.1695 137.807C36.5252 137.807 37.6202 138.19 38.4545 138.954C39.2888 139.684 39.7059 140.64 39.7059 141.822C39.7059 142.969 39.2888 143.925 38.4545 144.69C37.6202 145.42 36.5252 145.785 35.1695 145.785C33.8138 145.785 32.7188 145.42 31.8845 144.69C31.0502 143.925 30.6331 142.969 30.6331 141.822ZM38.8195 150.113V179H31.4674V150.113H38.8195ZM62.6777 149.696C66.0149 149.696 68.6742 150.791 70.6556 152.981C72.637 155.171 73.6277 158.247 73.6277 162.21V179H66.3277V163.044C66.3277 160.75 65.7368 158.977 64.5549 157.726C63.373 156.44 61.7565 155.796 59.7056 155.796C57.6199 155.796 55.9513 156.474 54.6999 157.83C53.4484 159.186 52.8227 161.132 52.8227 163.67V179H45.4706V150.113H52.8227V155.901C53.5875 153.954 54.8389 152.442 56.577 151.364C58.3499 150.252 60.3834 149.696 62.6777 149.696ZM128.381 142.187L119.36 179H110.287L103.405 152.303L96.4696 179H87.4488L78.4281 142.187H86.406L92.0374 170.709L99.3374 142.187H107.42L114.772 170.709L120.403 142.187H128.381ZM132.576 141.822C132.576 140.64 132.994 139.684 133.828 138.954C134.662 138.19 135.757 137.807 137.113 137.807C138.469 137.807 139.564 138.19 140.398 138.954C141.232 139.684 141.649 140.64 141.649 141.822C141.649 142.969 141.232 143.925 140.398 144.69C139.564 145.42 138.469 145.785 137.113 145.785C135.757 145.785 134.662 145.42 133.828 144.69C132.994 143.925 132.576 142.969 132.576 141.822ZM140.763 150.113V179H133.411V150.113H140.763ZM157.373 149.748C160.884 149.748 163.7 150.634 165.82 152.407C167.941 154.18 169.262 156.544 169.783 159.499H162.9C162.622 158.108 161.997 156.996 161.023 156.161C160.05 155.327 158.781 154.91 157.217 154.91C155.965 154.91 154.992 155.205 154.297 155.796C153.602 156.387 153.254 157.187 153.254 158.195C153.254 158.995 153.532 159.638 154.088 160.124C154.644 160.611 155.34 160.993 156.174 161.271C157.008 161.55 158.208 161.88 159.772 162.262C161.962 162.749 163.735 163.27 165.09 163.826C166.481 164.348 167.663 165.2 168.636 166.381C169.644 167.529 170.148 169.093 170.148 171.074C170.148 173.542 169.175 175.541 167.228 177.071C165.316 178.6 162.727 179.365 159.459 179.365C155.705 179.365 152.698 178.531 150.438 176.862C148.179 175.159 146.806 172.743 146.319 169.614H153.358C153.532 171.04 154.158 172.169 155.235 173.004C156.313 173.803 157.721 174.203 159.459 174.203C160.71 174.203 161.666 173.907 162.327 173.316C162.987 172.691 163.318 171.891 163.318 170.918C163.318 170.084 163.022 169.406 162.431 168.884C161.875 168.363 161.162 167.963 160.293 167.685C159.459 167.407 158.26 167.077 156.695 166.694C154.54 166.208 152.785 165.721 151.429 165.234C150.108 164.713 148.961 163.896 147.988 162.784C147.049 161.671 146.58 160.142 146.58 158.195C146.58 155.692 147.536 153.659 149.448 152.094C151.359 150.53 154.001 149.748 157.373 149.748ZM202.79 163.461C202.79 164.191 202.704 165.026 202.53 165.964H181.36C181.464 168.537 182.159 170.431 183.445 171.648C184.732 172.865 186.331 173.473 188.243 173.473C189.946 173.473 191.354 173.056 192.466 172.221C193.613 171.387 194.343 170.257 194.656 168.832H202.425C202.043 170.848 201.226 172.656 199.975 174.255C198.723 175.854 197.107 177.105 195.125 178.009C193.179 178.913 191.006 179.365 188.608 179.365C185.792 179.365 183.289 178.774 181.099 177.592C178.909 176.375 177.206 174.655 175.989 172.43C174.772 170.205 174.164 167.581 174.164 164.556C174.164 161.532 174.772 158.908 175.989 156.683C177.206 154.423 178.909 152.703 181.099 151.521C183.289 150.339 185.792 149.748 188.608 149.748C191.458 149.748 193.944 150.339 196.064 151.521C198.219 152.703 199.87 154.336 201.018 156.422C202.2 158.473 202.79 160.82 202.79 163.461ZM195.386 162.731C195.49 160.368 194.865 158.577 193.509 157.361C192.188 156.144 190.554 155.536 188.608 155.536C186.626 155.536 184.958 156.144 183.602 157.361C182.246 158.577 181.499 160.368 181.36 162.731H195.386Z" fill="#00D09E"/>
<path d="M99.4343 119.778V66.9994H120.64V119.778M63.9294 119.778V94.173H85.1346V119.778M135.795 119.778V41.7813H157V119.778M48 78.59L93.364 33.2259L108.805 47.1386L149.911 6.05229M148.974 24.8334L150.868 7.68191C150.904 7.32097 150.858 6.95671 150.735 6.61554C150.612 6.27437 150.415 5.96483 150.158 5.70937C149.9 5.45391 149.589 5.25895 149.247 5.13858C148.905 5.01821 148.541 4.97546 148.18 5.01344L131.048 6.90784" stroke="#00D09E" stroke-width="8.6625" stroke-linecap="round" stroke-linejoin="round"/>
</svg>
